# xmcd
#
# Track frame offsets:
#	187
#	11262
#	29697
#	41952
#	53812
#	64425
#	77545
#	92662
#	102262
#	117050
#	127550
#
# Disc length: 1958 seconds
# Revision: 1
# Processed by: cddbd v1.5.2PL0 Copyright (c) Steve Scherf et al.
# Submitted via: dBpowerAMP V12.0
#
DISCID=8407a40b
DTITLE=Aretha Franklin - I Never Loved A Man The Way I Love You MFSL UDCD 574
DYEAR=1967
DGENRE=R&B
TTITLE0=Respect
TTITLE1=Drown in My Own Tears
TTITLE2=I Never Loved a Man (The Way I Love You)
TTITLE3=Soul Serenade
TTITLE4=Don't Let Me Lose This Dream
TTITLE5=Baby Baby Baby
TTITLE6=Dr. Feelgood (Love Is a Serious Business)
TTITLE7=Good Times
TTITLE8=Do Right Woman Do Right Man
TTITLE9=Save Me
TTITLE10=A Change Is Gonna Come
EXTD=
EXTT0=
EXTT1=
EXTT2=
EXTT3=
EXTT4=
EXTT5=
EXTT6=
EXTT7=
EXTT8=
EXTT9=
EXTT10=
PLAYORDER=
